<svg id="bottom" xmlns="http://www.w3.org/2000/svg" xmlns:xlink="http://www.w3.org/1999/xlink" width="1600" height="516.575" viewBox="0 0 1600 516.575">
  <defs>
    <linearGradient id="linear-gradient" x1="0.203" y1="-0.052" x2="0.512" y2="1.332" gradientUnits="objectBoundingBox">
      <stop offset="0" stop-color="#a33fcd"/>
      <stop offset="0.696" stop-color="#5b2799"/>
      <stop offset="1" stop-color="#47208b"/>
    </linearGradient>
    <clipPath id="clip-path">
      <path id="Path_573" data-name="Path 573" d="M627,4893.939s220.42-226.9,476.263-237.055c95.429-3.788,124.8,17.652,155.025,38.447,50.175,34.524,106.128,84.766,186.918,92.9s165.983-66.08,279.827-57.282,177.839,106.441,266.832,106.073,171.585.188,234.985,46.565c.339,1.75,0,289.151,0,289.151l-1599.793.285Z" transform="translate(-627 -4656.446)" fill="url(#linear-gradient)"/>
    </clipPath>
    <linearGradient id="linear-gradient-3" x1="0.071" y1="0.248" x2="1" y2="0.5" gradientUnits="objectBoundingBox">
      <stop offset="0" stop-color="#a049ca"/>
      <stop offset="1" stop-color="#6c32a6"/>
    </linearGradient>
    <linearGradient id="linear-gradient-4" x1="0.406" y1="0.276" x2="1.261" y2="1.257" gradientUnits="objectBoundingBox">
      <stop offset="0" stop-color="#622d9e"/>
      <stop offset="1" stop-color="#451f8a"/>
    </linearGradient>
  </defs>
  <g id="Mask_Group_2" data-name="Mask Group 2" clip-path="url(#clip-path)">
    <path id="Path_571" data-name="Path 571" d="M627,4893.939s220.42-226.9,476.263-237.055c95.429-3.788,124.8,17.652,155.025,38.447,50.175,34.524,106.128,84.766,186.918,92.9s165.983-66.08,279.827-57.282,177.839,106.441,266.832,106.073,171.585.188,234.985,46.565c.339,1.75,0,289.151,0,289.151l-1599.793.285Z" transform="translate(-627 -4656.446)" fill="url(#linear-gradient)"/>
    <path id="Subtraction_1" data-name="Subtraction 1" d="M711.9,304.075h-.014c-26.262,0-47.958-1.88-68.28-5.916-18.529-3.68-34.162-8.73-52.264-14.578-18.7-6.043-39.9-12.892-68.7-19.5-68.884-15.8-84.744-19.147-121.442-19.147-10.554,0-22.848.284-38.414.643l-1.859.043a438.545,438.545,0,0,0-50.766,4.222c-13.771,1.938-27.658,4.517-41.275,7.666a364.433,364.433,0,0,0-37.88,10.64c-.153.051-15.547,5.136-37.646,10.088-13.067,2.928-25.963,5.262-38.329,6.936a327.435,327.435,0,0,1-43.574,3.153,199.731,199.731,0,0,1-38.017-3.35,131.6,131.6,0,0,1-17.608-4.669,99.285,99.285,0,0,1-16.016-7.093,78.763,78.763,0,0,1-13.93-9.838,70.013,70.013,0,0,1-11.351-12.9A73.729,73.729,0,0,1,6.26,234.177a92.467,92.467,0,0,1-4.711-20,183.9,183.9,0,0,1-.388-44.393,155.811,155.811,0,0,1,9.862-39.28c9.4-23.667,24.794-44.941,45.741-63.23,19.713-17.212,44.12-31.613,72.544-42.8a346.6,346.6,0,0,1,43.366-13.748,409.849,409.849,0,0,1,46.518-8.648A262.963,262.963,0,0,1,252.414,0a305.5,305.5,0,0,1,42.558,3.083,368.762,368.762,0,0,1,41.1,8.3,477.8,477.8,0,0,1,74.522,26.568,619.726,619.726,0,0,1,58.8,30.368c16.253,9.493,28.926,17.813,36.5,22.784l.585.384c2.513,1.65,4.982,3.312,7.369,4.919,30.022,20.207,61.065,41.1,204.452,61.664a328.547,328.547,0,0,0,46.338,3.084c65.789,0,138.784-15.934,214.036-33.687,4.973-1.173,9.965-2.356,14.793-3.5l.01,0c33.317-7.891,64.785-15.345,94.329-20.941,15.846-3,29.723-5.2,42.426-6.721a319.674,319.674,0,0,1,38.013-2.523c6.284,0,12.281.262,17.825.78a135.139,135.139,0,0,1,16.225,2.462c23.828,5.21,49.215,11.441,75.454,18.518,20.989,5.662,42.573,11.876,64.152,18.472,37.031,11.319,61.025,19.777,61.263,19.861-.193-.037-22.11-4.212-57.72-8.336-20.9-2.42-42.344-4.349-63.744-5.731-26.753-1.729-53.511-2.605-79.529-2.605-3.028,0-6.119.012-9.187.036-93.627.741-167.87,51.029-222.08,87.748l-.011.008C956.12,235,943.362,243.638,931.708,250.349c-27.911,16.071-52.835,28.621-83.754,37.635a355.39,355.39,0,0,1-51.877,10.768,625.021,625.021,0,0,1-67.025,5.074C723.131,303.991,717.362,304.075,711.9,304.075ZM277.781,159.831c14.5,0,42.85,6.711,70.264,13.2l.007,0c13.38,3.167,26.014,6.158,37.226,8.444,12.707,2.59,21.269,3.8,26.947,3.8,11.147-.968,19.4-4.2,24.527-9.607a20.579,20.579,0,0,0,5.369-10.638,17.989,17.989,0,0,0,.208-5.2,32.657,32.657,0,0,0-2.228-9.623,51.952,51.952,0,0,0-5.071-10.019,65.976,65.976,0,0,0-9.742-11.705A142.828,142.828,0,0,0,401.6,110.45a217.743,217.743,0,0,0-34.314-17.088,283.966,283.966,0,0,0-44.823-13.484,350.988,350.988,0,0,0-55.21-7.223c-5.8-.308-11.546-.464-17.092-.464-33.91,0-62.917,5.686-86.213,16.9-23.466,11.3-35.58,25.526-41.611,35.474-4.326,7.136-6.952,14.41-7.6,21.036-.592,6.1.57,11.15,3.271,14.23.793.9,1.55,1.848,2.352,2.846,3.169,3.948,6.762,8.422,13.712,11.931,8.044,4.061,19.093,6.035,33.778,6.035,4.078,0,8.5-.157,13.144-.466,11.328-.906,23.6-4.673,36.6-8.661,9.137-2.8,18.58-5.7,28.595-7.928A144.714,144.714,0,0,1,277.781,159.831Z" transform="translate(147.725 67.987)" opacity="0.8" fill="url(#linear-gradient-3)"/>
    <path id="Path_575" data-name="Path 575" d="M1018.233,5066.254s-149.357,1.092-171.565,75.355,171.565,60.43,171.565,60.43,203.352,16.381,183.757-60.43S1018.233,5066.254,1018.233,5066.254Z" transform="translate(-596.219 -4654.446)" fill="#7a38b0"/>
  </g>
  <path id="Path_576" data-name="Path 576" d="M627,5030.144v142.441h29.061s-7.6-13.948,0-40.831,44.284-96.609-2.48-104.169C637.587,5025,627,5030.144,627,5030.144Z" transform="translate(-627 -4656.446)" fill="#8f41be"/>
  <path id="Subtraction_2" data-name="Subtraction 2" d="M561.447,217.758H0c.051-.014,7.274-1.951,17.7-5.471a330.673,330.673,0,0,0,37.877-15.312A351.274,351.274,0,0,0,91.692,176.2c9.52-6.2,15.876-10.887,15.938-10.932s5.284-3.35,13.082-9.117A342.621,342.621,0,0,0,150.7,131.193c7.844-7.352,15.94-15.5,24.51-24.122,9.519-9.579,19.361-19.482,29.437-28.853a307.808,307.808,0,0,1,30.762-25.583,384.838,384.838,0,0,1,39.61-24.761,318.947,318.947,0,0,1,31.658-15.022c17.659-7.169,28.48-9.413,28.587-9.435a89.806,89.806,0,0,1,9.349-1.709A194.327,194.327,0,0,1,371.2,0a276.02,276.02,0,0,1,55.206,5.88c12.9,2.645,28.023,6.6,44.955,11.755,13.546,4.124,28.272,9.021,43.769,14.555,26.292,9.388,46.117,17.531,46.315,17.612V217.757ZM375.983,73.269c-22.3,0-43.273,5.3-59.044,14.937s-24.457,22.44-24.457,36.062,8.685,26.43,24.457,36.063,36.74,14.938,59.044,14.938,43.272-5.3,59.043-14.938,24.457-22.44,24.457-36.063-8.686-26.43-24.457-36.062S398.286,73.269,375.983,73.269Z" transform="translate(1038.405 298.786)" fill="url(#linear-gradient-4)"/>
</svg>
