<svg xmlns="http://www.w3.org/2000/svg" xmlns:xlink="http://www.w3.org/1999/xlink" width="838" height="838" viewBox="0 0 838 838">
  <defs>
    <linearGradient id="linear-gradient" x1="0.055" x2="1" y2="1" gradientUnits="objectBoundingBox">
      <stop offset="0" stop-color="#85a0ff"/>
      <stop offset="1" stop-color="#6075bf"/>
    </linearGradient>
  </defs>
  <g id="discord" transform="translate(0.029 0.029)">
    <rect id="Rectangle_101" data-name="Rectangle 101" width="838" height="838" rx="269" transform="translate(-0.029 -0.029)" fill="url(#linear-gradient)"/>
    <path id="Path_693" data-name="Path 693" d="M497.334,61.668C458.9,30.924,413.1,18.348,364.42,15.785l-7.686,7.686C400.287,33.719,438.41,51.42,474.276,79.6a390,390,0,0,0-143.47-43.553c-15.371-2.562-28.182-2.562-43.553-2.562s-28.182,0-43.553,2.562A390,390,0,0,0,100.23,79.6C136.1,51.42,174.452,33.719,218,23.472l-7.686-7.686C161.641,18.348,115.6,30.924,77.173,61.668,33.62,143.652,10.562,235.882,8,330.673c38.429,40.993,92.23,66.612,148.594,66.612,0,0,17.933-20.5,30.742-38.43-33.3-7.685-64.049-25.62-84.544-53.8,17.933,10.247,35.867,20.5,53.8,28.18,23.058,10.249,46.115,15.373,69.173,20.5,20.5,2.56,40.991,5.122,61.486,5.122s40.991-2.562,61.486-5.122c23.058-5.124,46.115-10.249,69.173-20.5,17.935-7.685,35.868-17.933,53.8-28.18-20.5,28.18-51.24,46.115-84.544,53.8,12.809,17.935,30.742,38.43,30.742,38.43,56.364,0,110.165-25.62,148.594-66.612C563.944,235.882,540.887,143.652,497.334,61.668ZM202.709,284.558c-25.62,0-48.677-23.058-48.677-51.238s23.058-51.24,48.677-51.24,48.677,23.058,48.677,51.24S228.329,284.558,202.709,284.558Zm169.088,0c-25.62,0-48.677-23.058-48.677-51.238s23.058-51.24,48.677-51.24,48.677,23.058,48.677,51.24S397.417,284.558,371.8,284.558Z" transform="translate(131.718 213.833)" fill="#fff"/>
  </g>
</svg>
