<svg xmlns="http://www.w3.org/2000/svg" xmlns:xlink="http://www.w3.org/1999/xlink" width="1600.073" height="617.3" viewBox="0 0 1600.073 617.3">
  <defs>
    <linearGradient id="linear-gradient" x1="1" x2="0.15" y2="0.812" gradientUnits="objectBoundingBox">
      <stop offset="0" stop-color="#3baec6"/>
      <stop offset="1" stop-color="#502cb1"/>
    </linearGradient>
    <linearGradient id="linear-gradient-2" x1="1.017" y1="0.869" x2="-0.107" y2="-0.267" gradientUnits="objectBoundingBox">
      <stop offset="0" stop-color="#5758c0"/>
      <stop offset="1" stop-color="#502cb1"/>
    </linearGradient>
    <linearGradient id="linear-gradient-3" x1="0.992" x2="0.163" y2="0.421" gradientUnits="objectBoundingBox">
      <stop offset="0" stop-color="#3cb1c9"/>
      <stop offset="1" stop-color="#5d45be"/>
    </linearGradient>
  </defs>
  <g id="Group_41" data-name="Group 41" transform="translate(0.047)">
    <g id="Group_19" data-name="Group 19">
      <g id="Group_3" data-name="Group 3" transform="translate(-1 0.224)">
        <path id="Path_2" data-name="Path 2" d="M2553.017,1739l-.064,156.768s249.522,399.436,679.525,414.543c87.05,3.647,119.385-13.231,124.52-32.738,2.443-9.272-.765-19.317-7.478-28.021-4.563-5.918-12.542-10.22-21.329-13.231-12.755-4.372-27.051-5.624-32.476-4.51-43.489,17.974-30.912-22.967-15.592-28.953s43.662-12.207,76.874,5.008c19.7,5.81,62.818,40.275,111.162,64.164,24.3,12.009,50,19.9,74.769,22.849,140.629,10.955,244.987-61.66,244.987-61.66s151.639-82.631,365.11-334.883V1739Z" transform="translate(-2552 -1739.224)" fill="url(#linear-gradient)"/>
        <path id="Intersection_1" data-name="Intersection 1" d="M501.718,287.35C273.159,258.677,101.762,119.637,0,11.043L.417,6.929S98.751-21.008,158.645,35.31,202.3,102.628,241.5,152.827s141.449,81.78,179.889,96.754,90.646,37.769,90.646,37.769Z" transform="translate(109.078 278.864)" fill="url(#linear-gradient-2)"/>
        <path id="Path_3" data-name="Path 3" d="M3733.112,776.838S3888.647,999.43,4016.9,1051.279c141.893,23.243,261.047,3.576,261.047,3.576s107.328-8.939,270.141,101.91c120.48,82.028,318.189-22.944,458.569-110.16,49.224-30.583,166.968-128.593,184.013-150.6,32.353-41.761,46.895-92.179,51.116-114.259,1.834-9.591-5.638-4.017-5.638-4.017s-21.879,54.483-78.552,113.62-128.312,109.93-148.141,122.931c-52.788,34.613-115.5,65.478-183.228,89.618-117.577,41.91-142,54.524-197.066,0s-141.383-126.34-189.2-168.454-202-47.218-269.34-62.958-138.255-95.653-138.255-95.653h-97.324s61.851,75.092,97.324,95.653c22.845,13.241,65.489,51.849,38.6,80.368-20.41,21.542-53.054,20.179-94.994.981s-54.574-58.33-72.766-77.773-78.223-99.229-78.223-99.229Z" transform="translate(-3643 -773.224)" fill="url(#linear-gradient-3)"/>
      </g>
      <g id="undraw_snow_games_ohkc_1_" data-name="undraw_snow_games_ohkc (1)" transform="matrix(0.883, 0.469, -0.469, 0.883, 764.944, 203.488)">
        <g id="Group_5" data-name="Group 5">
          <path id="Path_179" data-name="Path 179" d="M12.393.183l6.94,18.149L0,24.051.368,0Z" transform="translate(90.516 335.775) rotate(21)" fill="#575a89"/>
          <path id="Path_180" data-name="Path 180" d="M0,6.737,19.23,86.42l18.469,50.8,24.052.368L39.9,72.3,31.377,0Z" transform="translate(95.903 197.18) rotate(21)" fill="#2f2e41"/>
          <path id="Path_181" data-name="Path 181" d="M54.7,7.343s7.322,15.586,2.385,17.72-18.348,5-18.348,5L36.9,28.515S5.913,35.461.725,24.812,19.889,9.5,19.889,9.5L31.019,0,44.387,6.527Z" transform="translate(56.784 332.479) rotate(21)" fill="#2f2e41"/>
          <path id="Path_182" data-name="Path 182" d="M12.394.184l6.939,18.149L0,24.052.368,0Z" transform="translate(115.299 341.837) rotate(21)" fill="#575a89"/>
          <path id="Path_183" data-name="Path 183" d="M37.569,0l7.1,70.483,21.966,58.073-20.554,6.9L14.548,73.631,0,2.44Z" transform="translate(114.233 206.578) rotate(21)" fill="#2f2e41"/>
          <path id="Path_184" data-name="Path 184" d="M48.48.26s11.475,12.839,7.355,16.3S39.685,26.6,39.685,26.6l-2.207-.957s-27.7,15.52-35.719,6.8S15.739,12.285,15.739,12.285L23.687,0,38.364,2.43Z" transform="translate(85.81 348.475) rotate(21)" fill="#2f2e41"/>
          <g id="Group_6" data-name="Group 6" transform="translate(0 44.293) rotate(-17)">
            <ellipse id="Ellipse_114" data-name="Ellipse 114" cx="20.446" cy="20.446" rx="20.446" ry="20.446" transform="translate(80.83 51.778)" fill="#a0616a"/>
            <path id="Path_174" data-name="Path 174" d="M20.361.065C13.076.521,6.317,3.9,0,7.556a2.637,2.637,0,0,1,3.183.628c.843.817,1.373,1.908,2.184,2.757,1.508,1.577,3.769,2.123,5.9,2.6l9.926,2.208L30.4,17.795a18.719,18.719,0,0,0,7.05.648c2.343-.386,4.663-1.9,5.275-4.193.851-3.188-5.487-7.932-7.811-9.852A21.1,21.1,0,0,0,20.361.065Z" transform="translate(76.106 46.088)" fill="#2f2e41"/>
            <path id="Path_175" data-name="Path 175" d="M18.224,13.324C13.933,7.3,7.235,3.379.516,0c1.13.447,1.418,1.912,1.114,3.1S.606,5.367.257,6.547c-.648,2.194.052,4.454.749,6.56l3.246,9.814,3.011,9.1a17.855,17.855,0,0,0,3.152,6.449,6.552,6.552,0,0,0,6.658,2.177c3.382-1.071,4.374-9.226,4.9-12.318a20.478,20.478,0,0,0-3.751-15.009Z" transform="translate(96.945 49.558)" fill="#2f2e41"/>
            <path id="Path_176" data-name="Path 176" d="M10.241,25.3S9.038-1.163,3.025.04,1.822,27.7,1.822,27.7Z" transform="translate(2.036 31.291)" fill="#a0616a"/>
            <path id="Path_177" data-name="Path 177" d="M13.477,50.519,40.5,70.09l7.86,5.688L68.8,46.909l-12.76-5.03L29.113,31.273,13.477,0,.253,3.61C-2.159,9.623,13.477,50.519,13.477,50.519Z" transform="translate(0 51.774)" fill="#575a89"/>
            <path id="Path_178" data-name="Path 178" d="M9.7,29S13.305-2.273,6.089.132.075,32.605.075,32.605Z" transform="translate(45.877 21.578)" fill="#a0616a"/>
            <path id="Path_185" data-name="Path 185" d="M0,24.192l7.86,5.688L28.3,1.011,22.615,0c-.316.52-5.243.39-5.568.928C11.08,10.7,2.477,18.959,0,24.192Z" transform="translate(40.499 97.671)" opacity="0.15"/>
            <path id="Path_186" data-name="Path 186" d="M6.715,138.972c1.392-.9,1.717-10.313,3.712-11.136,1.013-.417,3.491,7.727,4.639,7.33,29.82-10.318,66.882,12.628,78.046-12.07,7.506-16.605-10.564-49.629-10.564-61.656A35.337,35.337,0,0,1,84.2,52.43c2.274-7.962,6.505-17.984,9.92-25.547,2.923-6.477,5.262-11.145,5.262-11.145S64.314,5.317,53.076,1.29C51.647.779,50.607.371,50.069.1c-2.153-1.076-7.684,6.533-13.353,15.8-6.978,11.423-14.179,25.38-15.506,28.7C18.806,50.62-13.729,152.205,6.715,138.972Z" transform="translate(21.137 79.334)" fill="#575a89"/>
            <path id="Path_187" data-name="Path 187" d="M0,13.73C13.019,29.4,27.032,48.139,39.1,51.684a20.03,20.03,0,0,0,4.055.78c2.274-7.962,6.505-17.984,9.92-25.547a16.406,16.406,0,0,0-4.909-3.684L15.544,7.179,12.027,1.324C10.6.813,9.559.4,9.02.136,6.867-.941,5.67,4.46,0,13.73Z" transform="translate(62.186 79.301)" opacity="0.15"/>
            <path id="Path_188" data-name="Path 188" d="M68,50.928c8.909,4.386,12.155,15.783,6.383,23.864-3,4.193-7.787,6.843-15.454,4.588C38.487,73.366,0,30.068,0,16.838V4.811L14.433,0,35.387,34.871Z" transform="translate(42.344 46.967)" fill="#575a89"/>
            <ellipse id="Ellipse_115" data-name="Ellipse 115" cx="1.856" cy="3.712" rx="1.856" ry="3.712" transform="translate(57.829 104.553) rotate(-144.485)" fill="#2f2e41"/>
            <ellipse id="Ellipse_116" data-name="Ellipse 116" cx="1.856" cy="3.712" rx="1.856" ry="3.712" transform="translate(52.261 114.761) rotate(-144.485)" fill="#2f2e41"/>
            <ellipse id="Ellipse_117" data-name="Ellipse 117" cx="1.856" cy="3.712" rx="1.856" ry="3.712" transform="translate(47.621 125.896) rotate(-144.485)" fill="#2f2e41"/>
            <ellipse id="Ellipse_118" data-name="Ellipse 118" cx="1.856" cy="3.712" rx="1.856" ry="3.712" transform="translate(46.037 137.042) rotate(-161.133)" fill="#2f2e41"/>
            <ellipse id="Ellipse_119" data-name="Ellipse 119" cx="1.856" cy="3.712" rx="1.856" ry="3.712" transform="translate(42.325 148.178) rotate(-161.133)" fill="#2f2e41"/>
            <ellipse id="Ellipse_120" data-name="Ellipse 120" cx="1.856" cy="3.712" rx="1.856" ry="3.712" transform="translate(38.613 158.385) rotate(-161.133)" fill="#2f2e41"/>
            <ellipse id="Ellipse_121" data-name="Ellipse 121" cx="1.856" cy="3.712" rx="1.856" ry="3.712" transform="translate(36.757 169.521) rotate(-161.133)" fill="#2f2e41"/>
            <ellipse id="Ellipse_122" data-name="Ellipse 122" cx="1.856" cy="3.712" rx="1.856" ry="3.712" transform="translate(34.9 180.657) rotate(-161.133)" fill="#2f2e41"/>
            <ellipse id="Ellipse_123" data-name="Ellipse 123" cx="1.856" cy="3.712" rx="1.856" ry="3.712" transform="translate(33.044 192.72) rotate(-161.133)" fill="#2f2e41"/>
            <ellipse id="Ellipse_124" data-name="Ellipse 124" cx="1.856" cy="3.712" rx="1.856" ry="3.712" transform="translate(32.117 204.784) rotate(-161.133)" fill="#2f2e41"/>
            <path id="Path_189" data-name="Path 189" d="M25.035,50.839S-2.437,18.814.175,12.6,24.293-6.5,49.142,3.952c0,0,10.915-8.569,14.712,3.263s-10,13.341-10,13.341,4.261,28.112-21.366,33.418Z" transform="translate(86.98 33.73)" fill="#3cb1c9"/>
            <ellipse id="Ellipse_219" data-name="Ellipse 219" cx="25" cy="4" rx="25" ry="4" transform="translate(0.654 20.686) rotate(-14)" fill="rgba(0,0,0,0.11)"/>
            <g id="Game_controller" data-name="Game controller" transform="translate(-0.011 -0.421) rotate(-16)">
              <path id="Path_209" data-name="Path 209" d="M0,.033.015,0H.009Z" transform="translate(41.549 12.974)" fill="#2f2e41"/>
              <g id="Group_7" data-name="Group 7" transform="translate(0 0)">
                <path id="Path_207" data-name="Path 207" d="M.011,2.107a.456.456,0,0,1,.426-.555L.9,0l.54.647L.918,2.021a.459.459,0,0,1-.907.085Z" transform="translate(36.623 11.728)" fill="#ffb6b6"/>
                <path id="Path_219" data-name="Path 219" d="M.046,2.162a4,4,0,0,0,2-2.117c.037-.092.179-.03.141.063A4.158,4.158,0,0,1,.1,2.307C.011,2.349-.044,2.2.046,2.162Z" transform="translate(5.954 3.644)" fill="#fff"/>
                <path id="Path_229" data-name="Path 229" d="M.046,2.162a4,4,0,0,0,2-2.117c.037-.092.179-.03.141.063A4.158,4.158,0,0,1,.1,2.307C.011,2.349-.044,2.2.046,2.162Z" transform="translate(30.252 0.141)" fill="#fff"/>
                <path id="Path_231" data-name="Path 231" d="M0,19.44l.534.413,2.075.36,2.307-5.734s1.413-4.419,5.368-3.515L23,10.738s3.9-.4,4.549,1.441c.122.349,3.419,8.052,3.419,8.052l2.311-.326L33,13.338,27.51.6,17.969,0,8.137.681Z" transform="translate(2.911 5.716)" fill="#3f3d56"/>
                <circle id="Ellipse_135" data-name="Ellipse 135" cx="3.673" cy="3.673" r="3.673" transform="translate(9.805 9.73)" fill="#2f2e41"/>
                <circle id="Ellipse_136" data-name="Ellipse 136" cx="3.673" cy="3.673" r="3.673" transform="translate(22.123 9.73)" fill="#2f2e41"/>
                <path id="Path_232" data-name="Path 232" d="M0,.938l1.512-.3S12.9-.983,20.095.938l-.544,1.526L.509,2.351Z" transform="translate(9.183 0.429)" fill="#e6e6e6"/>
                <path id="Path_233" data-name="Path 233" d="M13.148,8.728H3.485A2.443,2.443,0,0,1,1.074,6.8L.017,1.507A.847.847,0,0,1,.163.839.9.9,0,0,1,.782.475a59.609,59.609,0,0,1,15,0,.887.887,0,0,1,.61.359.848.848,0,0,1,.151.659l-.976,5.273A2.436,2.436,0,0,1,13.148,8.728Z" transform="translate(11.387 0.522)" fill="#00c4ff"/>
                <path id="Path_234" data-name="Path 234" d="M0,2.228l.042-.757A.731.731,0,0,1,.389.888,6.1,6.1,0,0,1,4.746.122a.733.733,0,0,1,.577.613l.056.394Z" transform="translate(4.885 0.001)" fill="#3f3d56"/>
                <path id="Path_235" data-name="Path 235" d="M5.379,2.228,0,1.13.09.5A.378.378,0,0,1,.373.182,6.062,6.062,0,0,1,5.16,1a.382.382,0,0,1,.167.294Z" transform="translate(29.123 0)" fill="#3f3d56"/>
                <path id="Path_236" data-name="Path 236" d="M3.177,24.762a.678.678,0,0,1-.367-.1A5.967,5.967,0,0,1,.144,20.08a21.134,21.134,0,0,1,.337-6.771A61.527,61.527,0,0,1,3.947,1.995a1.66,1.66,0,0,1,1.134-.977A41.227,41.227,0,0,1,10.031,0a1.883,1.883,0,0,1,1.494.918l0,.007L12.376,4.6v.053a4.328,4.328,0,0,1-.254,3.408,3.5,3.5,0,0,1-.937,1.111A18.809,18.809,0,0,0,7.675,14.46a30.425,30.425,0,0,0-2.758,7.214C4.505,23.859,3.9,24.527,3.469,24.7A.769.769,0,0,1,3.177,24.762Z" transform="translate(0 0.887)" fill="#aeeeff"/>
                <path id="Path_237" data-name="Path 237" d="M12.367,8.49H3.279A2.194,2.194,0,0,1,1.158,6.578L.016,1.466a.848.848,0,0,1,.721-1,54.231,54.231,0,0,1,14.107,0,.847.847,0,0,1,.717.991L14.493,6.578A2.162,2.162,0,0,1,12.367,8.49Z" transform="translate(11.864 0.308)" fill="#aeeeff"/>
                <path id="Path_238" data-name="Path 238" d="M9.424,24.762a.768.768,0,0,1-.292-.059c-.433-.176-1.037-.845-1.448-3.029A30.425,30.425,0,0,0,4.926,14.46a18.8,18.8,0,0,0-3.51-5.284A3.5,3.5,0,0,1,.48,8.066,4.328,4.328,0,0,1,.225,4.658V4.6L1.075.922l0,0A1.883,1.883,0,0,1,2.57,0,41.234,41.234,0,0,1,7.52,1.018a1.66,1.66,0,0,1,1.134.977h0a61.524,61.524,0,0,1,3.466,11.314,21.13,21.13,0,0,1,.337,6.771A5.967,5.967,0,0,1,9.789,24.66.674.674,0,0,1,9.424,24.762Z" transform="translate(26.785 0.887)" fill="#aeeeff"/>
                <circle id="Ellipse_137" data-name="Ellipse 137" cx="2.204" cy="2.204" r="2.204" transform="translate(11.274 10.578)" fill="#3f3d56"/>
                <circle id="Ellipse_138" data-name="Ellipse 138" cx="1.469" cy="1.469" r="1.469" transform="translate(12.009 11.312)" fill="#2f2e41"/>
                <circle id="Ellipse_139" data-name="Ellipse 139" cx="2.204" cy="2.204" r="2.204" transform="translate(23.592 10.578)" fill="#3f3d56"/>
                <circle id="Ellipse_140" data-name="Ellipse 140" cx="1.469" cy="1.469" r="1.469" transform="translate(24.327 11.312)" fill="#2f2e41"/>
                <circle id="Ellipse_141" data-name="Ellipse 141" cx="0.17" cy="0.17" r="0.17" transform="translate(18.111 9.787)" fill="#2f2e41"/>
                <circle id="Ellipse_142" data-name="Ellipse 142" cx="0.17" cy="0.17" r="0.17" transform="translate(18.846 9.787)" fill="#2f2e41"/>
                <circle id="Ellipse_143" data-name="Ellipse 143" cx="0.17" cy="0.17" r="0.17" transform="translate(18.507 10.408)" fill="#2f2e41"/>
                <circle id="Ellipse_144" data-name="Ellipse 144" cx="0.17" cy="0.17" r="0.17" transform="translate(19.185 10.408)" fill="#2f2e41"/>
                <circle id="Ellipse_145" data-name="Ellipse 145" cx="0.17" cy="0.17" r="0.17" transform="translate(19.863 10.408)" fill="#2f2e41"/>
                <circle id="Ellipse_146" data-name="Ellipse 146" cx="0.17" cy="0.17" r="0.17" transform="translate(20.541 10.408)" fill="#2f2e41"/>
                <circle id="Ellipse_147" data-name="Ellipse 147" cx="0.17" cy="0.17" r="0.17" transform="translate(19.58 9.787)" fill="#2f2e41"/>
                <circle id="Ellipse_148" data-name="Ellipse 148" cx="0.17" cy="0.17" r="0.17" transform="translate(20.315 9.787)" fill="#2f2e41"/>
                <circle id="Ellipse_149" data-name="Ellipse 149" cx="0.17" cy="0.17" r="0.17" transform="translate(21.049 9.787)" fill="#2f2e41"/>
                <path id="Path_239" data-name="Path 239" d="M1.723.509H.254A.254.254,0,1,1,.254,0H1.723a.254.254,0,0,1,0,.509Z" transform="translate(18.704 14.674)" fill="#2f2e41"/>
                <path id="Path_240" data-name="Path 240" d="M.646,1.8a.422.422,0,0,1-.409-.325L.011.518A.421.421,0,1,1,.832.325l.225.956A.422.422,0,0,1,.646,1.8Z" transform="translate(10.054 2.33)" fill="#3f3d56"/>
                <path id="Path_241" data-name="Path 241" d="M.422,1.8a.422.422,0,0,1-.411-.518L.236.325a.421.421,0,1,1,.82.193l-.225.957A.422.422,0,0,1,.422,1.8Z" transform="translate(28.321 2.274)" fill="#3f3d56"/>
                <path id="Path_242" data-name="Path 242" d="M1.149,2.789a.675.675,0,0,1-.388-.122L.288,2.335A.676.676,0,0,1,0,1.782V.768A.769.769,0,0,1,.768,0h.724A.769.769,0,0,1,2.26.768V1.792a.678.678,0,0,1-.275.544l-.436.321A.675.675,0,0,1,1.149,2.789Z" transform="translate(6.443 4.164)" fill="#3f3d56"/>
                <path id="Path_243" data-name="Path 243" d="M1.492,2.789H.768A.769.769,0,0,1,0,2.021V1.007A.676.676,0,0,1,.288.453L.761.122a.675.675,0,0,1,.788.01l.436.321A.678.678,0,0,1,2.26,1V2.021A.769.769,0,0,1,1.492,2.789Z" transform="translate(6.443 7.874)" fill="#3f3d56"/>
                <path id="Path_244" data-name="Path 244" d="M2.021,2.26H1.007a.676.676,0,0,1-.554-.288L.122,1.5A.675.675,0,0,1,.132.711L.453.275A.678.678,0,0,1,1,0H2.021a.769.769,0,0,1,.768.768v.724A.769.769,0,0,1,2.021,2.26Z" transform="translate(8.174 6.283)" fill="#3f3d56"/>
                <path id="Path_245" data-name="Path 245" d="M1.782,2.26H.768A.769.769,0,0,1,0,1.492V.768A.769.769,0,0,1,.768,0H1.792a.678.678,0,0,1,.544.275l.321.436a.675.675,0,0,1,.01.788l-.331.473A.676.676,0,0,1,1.782,2.26Z" transform="translate(4.126 6.283)" fill="#3f3d56"/>
                <circle id="Ellipse_150" data-name="Ellipse 150" cx="1.3" cy="1.3" r="1.3" transform="translate(30.542 3.232)" fill="#3f3d56"/>
                <circle id="Ellipse_151" data-name="Ellipse 151" cx="1.3" cy="1.3" r="1.3" transform="translate(33.424 6.227)" fill="#3f3d56"/>
                <circle id="Ellipse_152" data-name="Ellipse 152" cx="1.3" cy="1.3" r="1.3" transform="translate(30.542 9.052)" fill="#3f3d56"/>
                <circle id="Ellipse_153" data-name="Ellipse 153" cx="1.3" cy="1.3" r="1.3" transform="translate(27.66 6.17)" fill="#3f3d56"/>
                <path id="Path_246" data-name="Path 246" d="M.848,1.7A.848.848,0,1,1,1.7.848.848.848,0,0,1,.848,1.7Zm0-1.582a.735.735,0,1,0,.735.735A.735.735,0,0,0,.848.113Z" transform="translate(33.876 6.679)" fill="#e6e6e6"/>
                <path id="Path_247" data-name="Path 247" d="M1.7,1.487,0,1.463.872,0ZM.2,1.353l1.312.019L.869.226Z" transform="translate(31.046 3.675)" fill="#e6e6e6"/>
                <path id="Path_248" data-name="Path 248" d="M1.356,1.356H0V0H1.356ZM.113,1.243h1.13V.113H.113Z" transform="translate(28.282 6.792)" fill="#e6e6e6"/>
                <path id="Path_249" data-name="Path 249" d="M1.4,1.247.781.627,1.329.08,1.249,0,.7.547.153,0,.073.08.621.627,0,1.247l.08.08L.7.707l.621.62Z" transform="translate(31.141 9.688)" fill="#e6e6e6"/>
              </g>
            </g>
          </g>
        </g>
      </g>
    </g>
    <g id="undraw_Developer_activity_re_39tg" transform="translate(1140.135 -30.773)">
      <path id="Path_269" data-name="Path 269" d="M448.6,732.963q-1.576.036-3.163.036c-25.145,0-56.771-13.431-85.472-32.023q-3.562-2.307-7.06-4.721l2.046-12.448,61.924-8.222,31.079,23.765Z" transform="translate(-255.176 -394.624)" fill="#2f2e41"/>
      <path id="Path_272" data-name="Path 272" d="M586.824,335.535H578a1.031,1.031,0,0,0-1.031,1.031v8.824A1.029,1.029,0,0,0,578,346.421h8.824a1.031,1.031,0,0,0,1.031-1.031v-8.824A1.034,1.034,0,0,0,586.824,335.535Z" transform="translate(-390.415 -189.376)" fill="#e6e6e6"/>
      <path id="Path_273" data-name="Path 273" d="M587.839,374.333a1.037,1.037,0,0,0-1.015-.848H578a1.031,1.031,0,0,0-1.031,1.031v8.824A1.029,1.029,0,0,0,578,384.371h8.824a1.031,1.031,0,0,0,1.031-1.031v-8.824A.913.913,0,0,0,587.839,374.333Z" transform="translate(-390.415 -212.282)" fill="#e6e6e6"/>
      <path id="Path_274" data-name="Path 274" d="M587.224,411.514a1.044,1.044,0,0,0-.4-.079H578a1.029,1.029,0,0,0-1.031,1.031v8.824A1.026,1.026,0,0,0,578,422.321h8.824a1.031,1.031,0,0,0,1.031-1.031v-8.824a1.037,1.037,0,0,0-.63-.951Z" transform="translate(-390.415 -235.188)" fill="#e6e6e6"/>
      <path id="Path_279" data-name="Path 279" d="M633.584,411.435H624.76a1.029,1.029,0,0,0-1.031,1.031v8.824a1.029,1.029,0,0,0,1.031,1.031h8.824a1.031,1.031,0,0,0,1.031-1.031v-8.824A1.031,1.031,0,0,0,633.584,411.435Z" transform="translate(-418.638 -235.188)" fill="#e6e6e6"/>
      <path id="Path_320" data-name="Path 320" d="M335.721,660.009h-.246l.21-.028Z" transform="translate(-175.387 -353.656)" fill="#2f2e41"/>
      <circle id="ab6171fa-7d69-4734-b81c-8dff60f9761b" cx="27.084" cy="27.084" r="27.084" transform="translate(112.128 87.672)" fill="#ffb6b6"/>
      <path id="bf427902-b9bf-4946-b5d7-5c1c7e04535e" d="M432.523,174.484s7.084-13.542-8.5-14.773c0,0-13.286-12.052-26.828-2.2,0,0-7.387,0-11.426,8.359,0,0-5.81-2.2-7.086,3.693,0,0-4.251,12.311,0,23.391s5.663,12.311,5.663,12.311-6.985-23.229,10.017-24.461,36.029-11.857,37.446,1.685,3.549,16.879,3.549,16.879S448.817,180.024,432.523,174.484Z" transform="translate(-269.593 -79.585)" fill="#2f2e41"/>
      <path id="Path_321" data-name="Path 321" d="M455.468,379.01l-.087.46-.979,5.169L447.635,420.4l-.4,2.105-.84,4.452-1.15,6.073L442.7,446.484l-.729,3.857-.274,1.447-.1.507-.757,3.992-.23,1.205-1.847,13.688-1.613,11.928,5.4,5.4-3.219,3.219-2.113,12.1,0,.028H350.988q-5.233-3.389-10.315-6.989l.71-5.312s2.442-9.486,1.415-10.62-3.267-3.159-3.267-3.159l2.827-6.6.392-.916-.658-13.649-.016-.329-.218-4.5-.028-.579-.044-.868-.836-17.316-.016-.285-.254-5.249-.238-4.991-.1-2.105-1.019-21.062-.69-14.3-.6-12.452,2.422-.821,25.906-8.8L377.088,349l22.334.166,10.933.083L428.6,366.174l4.151,1.982.032.016,2.977,1.423,7.548,3.6,7.98,3.814,4.095,1.954Z" transform="translate(-246.195 -197.506)" fill="#cacaca"/>
      <path id="Path_322" data-name="Path 322" d="M354.979,589.181a12.006,12.006,0,0,1-16.12-8.892L296.617,574.3,311.3,557.686l37.862,8.238a12.071,12.071,0,0,1,5.815,23.258Z" transform="translate(-221.2 -323.462)" fill="#ffb6b6"/>
      <path id="Path_323" data-name="Path 323" d="M298.521,457.723a5.36,5.36,0,0,0-3.128-1.931l-17.331-3.6-1.78-.369a7.505,7.505,0,0,1-4.967-3.6,7.6,7.6,0,0,1-.971-3.132,7.49,7.49,0,0,1,.353-2.965l6.006-18.1,3.9-11.742a16.568,16.568,0,0,0,.829-4.38,17.184,17.184,0,0,0-3.6-11.452,16.924,16.924,0,0,0-19.428-5.407c-.1.036-.2.075-.3.115a16.881,16.881,0,0,0-10.033,11.262l-4.234,15.4L235.1,449.576a22.9,22.9,0,0,0,19.409,28.812l24.962,2.926,11.552,1.356a5.35,5.35,0,0,0,5.883-4.254,1.936,1.936,0,0,0,.044-.218l.278-1.713,2.351-14.422.024-.147A5.341,5.341,0,0,0,298.521,457.723Z" transform="translate(-183.576 -222.203)" fill="#cacaca"/>
      <path id="Path_324" data-name="Path 324" d="M497.374,581.449a12.006,12.006,0,0,0,14.7-11.076l40.975-11.89-16.88-14.374L499.851,557.6a12.071,12.071,0,0,0-2.477,23.845Z" transform="translate(-336.688 -315.267)" fill="#ffb6b6"/>
      <path id="Path_325" data-name="Path 325" d="M608.531,429.39l-19.488-44.851a16.974,16.974,0,0,0-8.035-8.464,17.189,17.189,0,0,0-3.48-1.269c-.186-.048-.373-.091-.559-.127a16.7,16.7,0,0,0-7.722.143,16.972,16.972,0,0,0-10.838,8.614.394.394,0,0,0-.032.055,17.086,17.086,0,0,0-.147,15.4l.242.484,13.772,27.658a7.492,7.492,0,0,1-4.162,10.382l-.967.349-17.395,6.283a5.35,5.35,0,0,0-3.3,6.656l.044.139,4.876,15.6c.024.071.047.143.075.214a2.8,2.8,0,0,0,.159.393,5.344,5.344,0,0,0,6.267,2.985l9.387-2.478,1.915-.507,24.241-6.4a22.9,22.9,0,0,0,15.151-31.262Z" transform="translate(-371.822 -212.771)" fill="#cacaca"/>
      <path id="Path_326" data-name="Path 326" d="M219.629,608.285a203.8,203.8,0,0,0,18.136,19.393H416.934a6.519,6.519,0,0,1,6.509,6.513l.258,45.4a140.9,140.9,0,0,0,30.711-19.238q3.9-3.205,7.56-6.688,2.4-2.271,4.678-4.654a140.977,140.977,0,0,0,27.281-40.728Z" transform="translate(-174.731 -354.003)" fill="#3f3d56"/>
      <path id="Path_327" data-name="Path 327" d="M777.566,711.025q-2.277,2.384-4.678,4.654H734.749v-4.654Z" transform="translate(-485.648 -416.015)" fill="#fff"/>
      <path id="Path_328" data-name="Path 328" d="M429.217,333.785a2.2,2.2,0,0,0-1.931-1.15H297.325a2.2,2.2,0,0,0-2.2,2.2V412.62H429.487V334.835A2.135,2.135,0,0,0,429.217,333.785Z" transform="translate(-220.301 -187.625)" fill="#3f3d56"/>
      <path id="Path_329" data-name="Path 329" d="M294.832,529.092v9.6a3.03,3.03,0,0,0,3.03,3.03h49.591v18.943h-.659a.394.394,0,0,0-.394.394v1.318a.394.394,0,0,0,.394.394h30.785a.394.394,0,0,0,.394-.394v-1.318a.394.394,0,0,0-.394-.394h-.659V541.721h49.59a3.03,3.03,0,0,0,3.03-3.03v-9.6Z" transform="translate(-220.122 -306.203)" fill="#3f3d56"/>
      <circle id="Ellipse_155" data-name="Ellipse 155" cx="12.41" cy="12.41" r="12.41" transform="translate(128.026 170.518)" fill="#00c4ff"/>
      <path id="Path_330" data-name="Path 330" d="M439.6,206.2h-1.982c0-14.985-14.83-24.8-29.791-24.812a32.66,32.66,0,0,0-6.481.63c-2.4.48-4.9,1.054-7.346,1.8-9.661,2.961-18.62,8.686-18.62,22.378a31.155,31.155,0,0,0,1.007,7.881l-1.919.5a33.249,33.249,0,0,1-1.07-8.38c0-11.964,4.912-20.182,13.395-25.081a43.281,43.281,0,0,1,16.138-5.046,38.5,38.5,0,0,1,7.829-.238C427.966,177.072,439.6,190.265,439.6,206.2Z" transform="translate(-267.544 -92.924)" fill="#00c4ff"/>
      <path id="Path_331" data-name="Path 331" d="M531.195,238.261l-.781-5.772a6.308,6.308,0,0,0-7.235-5.375l-1.241.17a2.609,2.609,0,0,0-2.236,2.934l1.8,13.3a2.607,2.607,0,0,0,2.1,2.208,2.44,2.44,0,0,0,.484.048,2.575,2.575,0,0,0,.348-.024l1.388-.186a6.26,6.26,0,0,0,4.258-2.549c.107-.151.21-.305.305-.464A6.639,6.639,0,0,0,531.195,238.261Z" transform="translate(-355.835 -123.886)" fill="#00c4ff"/>
      <path id="Path_332" data-name="Path 332" d="M521.138,228.275a2.55,2.55,0,0,0-.924.761,2.6,2.6,0,0,0-.511,1.931l1.8,13.3a2.607,2.607,0,0,0,2.1,2.208Z" transform="translate(-355.835 -124.635)" fill="#fff"/>
      <path id="Path_333" data-name="Path 333" d="M544.522,240.8l-.781-5.772a6.228,6.228,0,0,0-1.982-3.79l1.8,13.228a2.448,2.448,0,0,0,.163.618,6.64,6.64,0,0,0,.8-4.285Z" transform="translate(-369.163 -126.422)" fill="#3f3d56"/>
      <ellipse id="Ellipse_156" data-name="Ellipse 156" cx="0.991" cy="2.775" rx="0.991" ry="2.775" transform="translate(167.458 113.166) rotate(-7.726)" fill="#3f3d56"/>
      <ellipse id="Ellipse_157" data-name="Ellipse 157" cx="0.991" cy="2.775" rx="0.991" ry="2.775" transform="translate(166.269 106.03) rotate(-7.726)" fill="#3f3d56"/>
      <ellipse id="Ellipse_158" data-name="Ellipse 158" cx="0.991" cy="2.775" rx="0.991" ry="2.775" transform="translate(173.801 108.805) rotate(-7.726)" fill="#3f3d56"/>
      <path id="Path_334" data-name="Path 334" d="M428.223,181.389a32.657,32.657,0,0,0-6.481.63c-2.4.48-4.9,1.054-7.346,1.8-3.825-.186-6.64-1.177-7.207-2.7a43.281,43.281,0,0,1,16.138-5.046,38.506,38.506,0,0,1,7.829-.238,2.27,2.27,0,0,1,1.078,1.514C432.421,178.729,430.847,180.2,428.223,181.389Z" transform="translate(-287.939 -92.924)" fill="#3f3d56"/>
      <path id="Path_335" data-name="Path 335" d="M378.685,265.17l-3.052-12.689a2.388,2.388,0,0,0-1.935-1.8,2.669,2.669,0,0,0-.4-.032,2.388,2.388,0,0,0-.555.067l-1.181.285a5.908,5.908,0,0,0-4.357,7.12l1.368,5.693a6.281,6.281,0,0,0,2.117,3.417,5.564,5.564,0,0,0,.539.385,5.871,5.871,0,0,0,4.507.729l1.177-.285a2.315,2.315,0,0,0,.86-.4A2.376,2.376,0,0,0,378.685,265.17Z" transform="translate(-263.709 -138.138)" fill="#00c4ff"/>
      <ellipse id="Ellipse_159" data-name="Ellipse 159" cx="0.991" cy="2.775" rx="0.991" ry="2.775" transform="translate(106.316 119.508) rotate(-13.53)" fill="#3f3d56"/>
      <ellipse id="Ellipse_160" data-name="Ellipse 160" cx="0.991" cy="2.775" rx="0.991" ry="2.775" transform="translate(102.352 120.697) rotate(-13.53)" fill="#3f3d56"/>
      <path id="Path_336" data-name="Path 336" d="M389.058,264.875l-3.052-12.689a2.589,2.589,0,0,0-2.1-1.95l4.166,17.331A2.581,2.581,0,0,0,389.058,264.875Z" transform="translate(-273.887 -137.89)" fill="#fff"/>
      <path id="Path_337" data-name="Path 337" d="M367.9,261.676a2.567,2.567,0,0,0-.464-.971,5.837,5.837,0,0,0-.226,3.484l1.368,5.693a6.281,6.281,0,0,0,2.117,3.417Z" transform="translate(-263.706 -144.21)" fill="#3f3d56"/>
    </g>
  </g>
</svg>
