<svg xmlns="http://www.w3.org/2000/svg" width="51.612" height="52.08" viewBox="0 0 51.612 52.08">
  <path id="Home" d="M3409.062,8252.3a5.4,5.4,0,0,0-2.427.77l-22.341,22.538a7.6,7.6,0,0,0-.863,3.023,5.422,5.422,0,0,0,.863,2.692,3.6,3.6,0,0,0,1.789,1.611,4.367,4.367,0,0,0,2.562.4v16.106a4.28,4.28,0,0,0,1.473,3.207,4.882,4.882,0,0,0,2.943,1.729h9.677a1.884,1.884,0,0,0,1.06-.461,1.794,1.794,0,0,0,.3-1.1v-12.4a3.448,3.448,0,0,1,.85-1.639,3.187,3.187,0,0,1,1.683-.635h5.066a3.417,3.417,0,0,1,1.821.635,2.5,2.5,0,0,1,.582,1.639v12.4a2.506,2.506,0,0,0,.532,1.1,1.956,1.956,0,0,0,1.027.461h9.482a7.063,7.063,0,0,0,3.1-1.729,6.327,6.327,0,0,0,1.516-3.207l-.26-16.106a8.492,8.492,0,0,0,2.856-.478,5.525,5.525,0,0,0,2.015-1.535,5.373,5.373,0,0,0,.675-2.77,5.567,5.567,0,0,0-.675-2.946l-22.666-22.538A8.409,8.409,0,0,0,3409.062,8252.3Z" transform="translate(-3383.432 -8252.297)" fill="#fff"/>
</svg>
