<svg xmlns="http://www.w3.org/2000/svg" width="640.477" height="576.166" viewBox="0 0 640.477 576.166">
  <path id="itchio" d="M83.5,3.563C55.564,20.151.522,83.384,0,99.967v27.449c0,34.794,32.523,65.376,62.053,65.376,35.457,0,65-29.386,65-64.264,0,34.878,28.53,64.264,63.99,64.264s63.076-29.386,63.076-64.264c0,34.878,30.336,64.264,65.8,64.264h.642c35.463,0,65.8-29.386,65.8-64.264,0,34.878,27.616,64.264,63.074,64.264s63.99-29.386,63.99-64.264c0,34.878,29.548,64.264,65,64.264,29.53,0,62.053-30.576,62.053-65.376V99.967c-.522-16.585-55.564-79.821-83.5-96.4C470.149.514,409.952-.013,320.236,0S108.212,1.41,83.5,3.563ZM253.672,176.4A73.151,73.151,0,0,1,241.2,192.47a74.394,74.394,0,0,1-104.028-.01,69.514,69.514,0,0,1-11.91-15.745l-.016.01c-3.372,5.925-8.071,11-12.931,15.758a74.391,74.391,0,0,1-52.069,21.2,22.445,22.445,0,0,1-7.027-1.378c-2.85,29.684-4.054,58.051-4.479,78.735l-.005.117c-.052,10.5-.1,19.141-.157,31.14.548,62.28-6.168,201.859,27.46,236.155,52.111,12.151,148,17.684,244.2,17.718h.016c96.2-.034,192.087-5.568,244.2-17.718,33.628-34.3,26.911-173.878,27.46-236.158-.057-12-.1-20.634-.157-31.14l-.008-.117c-.423-20.689-1.626-49.054-4.477-78.738a22.429,22.429,0,0,1-7.027,1.378,74.391,74.391,0,0,1-52.069-21.2c-4.86-4.756-9.559-9.83-12.934-15.758l-.016-.01a69.535,69.535,0,0,1-11.911,15.745,74.391,74.391,0,0,1-104.025.005,73.151,73.151,0,0,1-12.477-16.066,73.063,73.063,0,0,1-12.362,16.066,74.366,74.366,0,0,1-52.074,21.206c-.7,0-1.41-.031-2.114-.052h-.018c-.7.021-1.41.052-2.122.052a74.365,74.365,0,0,1-52.074-21.2A73.066,73.066,0,0,1,253.68,176.4ZM200.2,245.549l-.005.026h.039c21.177.044,39.989,0,63.3,25.439a539.571,539.571,0,0,1,56.7-2.856h.016a540.366,540.366,0,0,1,56.7,2.856c23.309-25.442,42.121-25.4,63.3-25.439h.037l-.005-.026c10,0,50.028,0,77.915,78.325l29.955,107.45c22.2,79.936-7.108,81.891-43.661,81.961-54.209-2.018-84.224-41.385-84.224-80.747-30.007,4.918-65.013,7.376-100.019,7.379h-.016c-35.008,0-70.014-2.461-100.019-7.379,0,39.362-30.018,78.73-84.224,80.747-36.554-.07-65.856-2.023-43.659-81.961l29.963-107.447c27.888-78.325,67.91-78.325,77.915-78.325ZM320.23,307.1v.016c-.052.052-57.067,52.413-67.318,71.037l37.337-1.5v32.56c0,1.524,14.983.9,29.981.209h.016c14.993.694,29.978,1.316,29.978-.209v-32.56l37.337,1.5c-10.253-18.624-67.318-71.037-67.318-71.037V307.1l-.008.005Z" transform="translate(0 0)" fill="#fa5c5c"/>
</svg>
