<svg xmlns="http://www.w3.org/2000/svg" xmlns:xlink="http://www.w3.org/1999/xlink" width="294" height="314" viewBox="0 0 294 314">
  <defs>
    <linearGradient id="linear-gradient" y1="-0.032" x2="0.912" y2="1.088" gradientUnits="objectBoundingBox">
      <stop offset="0" stop-color="#98b4ff"/>
      <stop offset="1" stop-color="#65ffcb"/>
    </linearGradient>
  </defs>
  <g id="ML_AI" data-name="ML/AI" transform="translate(-0.188 -0.094)">
    <rect id="shadow" width="294" height="314" rx="28" transform="translate(0.188 0.094)" fill="#fff"/>
    <g id="Group_35" data-name="Group 35" transform="translate(29.681 7.067)">
      <g id="Group_34" data-name="Group 34" transform="translate(28.268 0)">
        <g id="Group_28" data-name="Group 28" transform="translate(0 0)">
          <circle id="Ellipse_188" data-name="Ellipse 188" cx="89" cy="89" r="89" transform="translate(0.239 0.027)" fill="url(#linear-gradient)"/>
          <g id="Group_27" data-name="Group 27" transform="translate(53.302 32.034)">
            <g id="border" transform="translate(0 0)">
              <rect id="Rectangle_66" data-name="Rectangle 66" width="53.805" height="24.953" rx="12.477" transform="translate(10.007 26.136)" fill="#63ff97" stroke="#000" stroke-linecap="round" stroke-linejoin="round" stroke-width="3"/>
              <rect id="Rectangle_67" data-name="Rectangle 67" width="45.227" height="0.468" transform="translate(14.296 47.259)" stroke="#000" stroke-linecap="round" stroke-linejoin="round" stroke-width="3" opacity="0.1"/>
              <rect id="Rectangle_68" data-name="Rectangle 68" width="45.227" height="17.155" transform="translate(14.296 30.034)" stroke="#000" stroke-linecap="round" stroke-linejoin="round" stroke-width="3" opacity="0.3"/>
              <circle id="Ellipse_177" data-name="Ellipse 177" cx="6.238" cy="6.238" r="6.238" transform="translate(18.584 32.732)" stroke="#000" stroke-linecap="round" stroke-linejoin="round" stroke-width="3" opacity="0.1"/>
              <circle id="Ellipse_178" data-name="Ellipse 178" cx="6.238" cy="6.238" r="6.238" transform="translate(42.757 32.732)" opacity="0.1"/>
              <rect id="Rectangle_69" data-name="Rectangle 69" width="9.357" height="5.46" transform="translate(32.23 51.088)" fill="#63ff97" stroke="#000" stroke-linecap="round" stroke-linejoin="round" stroke-width="3"/>
              <rect id="Rectangle_70" data-name="Rectangle 70" width="38.989" height="31.191" transform="translate(17.415 54.988)" fill="#63ff97" stroke="#000" stroke-linecap="round" stroke-linejoin="round" stroke-width="3"/>
              <rect id="Rectangle_71" data-name="Rectangle 71" width="40.549" height="3.899" transform="translate(16.635 86.112)" fill="#63ff97" stroke="#000" stroke-linecap="round" stroke-linejoin="round" stroke-width="3"/>
              <g id="Group_26" data-name="Group 26" transform="translate(23.263 90.057)">
                <path id="Path_580" data-name="Path 580" d="M720.689,329.835v17.935h7.018V324.376h-7.018Z" transform="translate(-720.689 -324.376)" fill="#63ff97" stroke="#000" stroke-linecap="round" stroke-linejoin="round" stroke-width="3"/>
                <path id="Path_581" data-name="Path 581" d="M780.8,324.376v23.393h7.018V324.376Z" transform="translate(-759.744 -324.376)" fill="#63ff97" stroke="#000" stroke-linecap="round" stroke-linejoin="round" stroke-width="3"/>
                <rect id="Rectangle_72" data-name="Rectangle 72" width="7.018" height="5.458" transform="translate(0)" stroke="#000" stroke-linecap="round" stroke-linejoin="round" stroke-width="3" opacity="0.3"/>
                <rect id="Rectangle_73" data-name="Rectangle 73" width="7.018" height="7.018" transform="translate(0 10.137)" stroke="#000" stroke-linecap="round" stroke-linejoin="round" stroke-width="3" opacity="0.3"/>
                <rect id="Rectangle_74" data-name="Rectangle 74" width="7.018" height="2.339" transform="translate(0 21.054)" stroke="#000" stroke-linecap="round" stroke-linejoin="round" stroke-width="3" opacity="0.3"/>
                <rect id="Rectangle_75" data-name="Rectangle 75" width="7.018" height="5.458" transform="translate(21.054)" stroke="#000" stroke-linecap="round" stroke-linejoin="round" stroke-width="3" opacity="0.3"/>
                <rect id="Rectangle_76" data-name="Rectangle 76" width="7.018" height="7.018" transform="translate(21.054 10.137)" stroke="#000" stroke-linecap="round" stroke-linejoin="round" stroke-width="3" opacity="0.3"/>
                <rect id="Rectangle_77" data-name="Rectangle 77" width="7.018" height="2.339" transform="translate(21.054 21.054)" stroke="#000" stroke-linecap="round" stroke-linejoin="round" stroke-width="3" opacity="0.3"/>
              </g>
              <g id="Group_25" data-name="Group 25" transform="translate(0 62.006)">
                <path id="Path_582" data-name="Path 582" d="M694.293,280.656v7.212a10.548,10.548,0,0,0-5.184,2.5,12.264,12.264,0,0,0-3.087,4.525,22.98,22.98,0,0,0-1.52,6.908,39.5,39.5,0,0,0,.431,9.267h-7.8a53.223,53.223,0,0,1,.2-11.185,29.673,29.673,0,0,1,2.5-8.865,18,18,0,0,1,8.3-8.705A15.324,15.324,0,0,1,694.293,280.656Z" transform="translate(-676.935 -280.656)" fill="#63ff97" stroke="#000" stroke-linecap="round" stroke-linejoin="round" stroke-width="3"/>
                <path id="Path_583" data-name="Path 583" d="M715.076,280.656v7.212a10.548,10.548,0,0,0-5.184,2.5l-.97-8.054A15.322,15.322,0,0,1,715.076,280.656Z" transform="translate(-697.718 -280.656)" stroke="#000" stroke-linecap="round" stroke-linejoin="round" stroke-width="3" opacity="0.3"/>
                <path id="Path_584" data-name="Path 584" d="M686.775,314.115a22.992,22.992,0,0,0-1.52,6.908l-7.162-1.917a29.68,29.68,0,0,1,2.5-8.865Z" transform="translate(-677.687 -299.879)" stroke="#000" stroke-linecap="round" stroke-linejoin="round" stroke-width="3" opacity="0.3"/>
              </g>
              <g id="Group_24" data-name="Group 24" transform="translate(56.11 62.006)">
                <path id="Path_585" data-name="Path 585" d="M868.128,280.656v7.212a10.549,10.549,0,0,1,5.184,2.5,12.262,12.262,0,0,1,3.086,4.525,22.976,22.976,0,0,1,1.52,6.908,39.489,39.489,0,0,1-.431,9.267h7.8a53.232,53.232,0,0,0-.2-11.185,29.688,29.688,0,0,0-2.5-8.865,18,18,0,0,0-8.3-8.705A15.321,15.321,0,0,0,868.128,280.656Z" transform="translate(-868.128 -280.656)" fill="#63ff97" stroke="#000" stroke-linecap="round" stroke-linejoin="round" stroke-width="3"/>
                <path id="Path_586" data-name="Path 586" d="M868.128,280.656v7.212a10.549,10.549,0,0,1,5.184,2.5l.97-8.054A15.321,15.321,0,0,0,868.128,280.656Z" transform="translate(-868.128 -280.656)" stroke="#000" stroke-linecap="round" stroke-linejoin="round" stroke-width="3" opacity="0.3"/>
                <path id="Path_587" data-name="Path 587" d="M891.74,314.115a22.987,22.987,0,0,1,1.52,6.908l7.162-1.917a29.694,29.694,0,0,0-2.5-8.865Z" transform="translate(-883.469 -299.879)" stroke="#000" stroke-linecap="round" stroke-linejoin="round" stroke-width="3" opacity="0.3"/>
              </g>
              <rect id="Rectangle_78" data-name="Rectangle 78" width="9.357" height="0.646" transform="translate(32.23 51.088)" stroke="#000" stroke-linecap="round" stroke-linejoin="round" stroke-width="3" opacity="0.1"/>
              <path id="Path_588" data-name="Path 588" d="M853.6,276.485v13.059a2.721,2.721,0,0,1-.725-1.851v-9.359A2.718,2.718,0,0,1,853.6,276.485Z" transform="translate(-796.503 -215.94)" stroke="#000" stroke-linecap="round" stroke-linejoin="round" stroke-width="3" opacity="0.1"/>
              <path id="Path_589" data-name="Path 589" d="M740.7,275.875v9.776a2.717,2.717,0,0,1-.727,1.654V274.221A2.717,2.717,0,0,1,740.7,275.875Z" transform="translate(-723.148 -214.469)" stroke="#000" stroke-linecap="round" stroke-linejoin="round" stroke-width="3" opacity="0.1"/>
              <rect id="Rectangle_79" data-name="Rectangle 79" width="35.09" height="0.462" transform="translate(19.365 86.179)" stroke="#000" stroke-linecap="round" stroke-linejoin="round" stroke-width="3" opacity="0.1"/>
              <rect id="Rectangle_82" data-name="Rectangle 82" width="2.685" height="23.092" transform="translate(20.498 3.043)" fill="#63ff97" stroke="#000" stroke-linecap="round" stroke-linejoin="round" stroke-width="3"/>
              <rect id="Rectangle_83" data-name="Rectangle 83" width="2.685" height="23.092" transform="translate(51.287 3.043)" fill="#63ff97" stroke="#000" stroke-linecap="round" stroke-linejoin="round" stroke-width="3"/>
              <circle id="Ellipse_179" data-name="Ellipse 179" cx="3.043" cy="3.043" r="3.043" transform="translate(18.708 0.179)" stroke="#000" stroke-linecap="round" stroke-linejoin="round" stroke-width="3" opacity="0.1"/>
              <circle id="Ellipse_180" data-name="Ellipse 180" cx="3.043" cy="3.043" r="3.043" transform="translate(18.708 0)" fill="#63ff97" stroke="#000" stroke-linecap="round" stroke-linejoin="round" stroke-width="3"/>
              <circle id="Ellipse_181" data-name="Ellipse 181" cx="3.043" cy="3.043" r="3.043" transform="translate(49.676 0.179)" stroke="#000" stroke-linecap="round" stroke-linejoin="round" stroke-width="3" opacity="0.1"/>
              <circle id="Ellipse_182" data-name="Ellipse 182" cx="3.043" cy="3.043" r="3.043" transform="translate(49.676 0)" fill="#63ff97" stroke="#000" stroke-linecap="round" stroke-linejoin="round" stroke-width="3"/>
            </g>
            <g id="robot" transform="translate(0 0)">
              <rect id="Rectangle_66-2" data-name="Rectangle 66" width="53.805" height="24.953" rx="12.477" transform="translate(10.007 26.136)" fill="#63ff97"/>
              <rect id="Rectangle_67-2" data-name="Rectangle 67" width="45.227" height="0.468" transform="translate(14.296 47.259)" opacity="0.1"/>
              <rect id="Rectangle_68-2" data-name="Rectangle 68" width="45.227" height="17.155" transform="translate(14.296 30.034)" opacity="0.3"/>
              <circle id="Ellipse_177-2" data-name="Ellipse 177" cx="6.238" cy="6.238" r="6.238" transform="translate(18.584 32.732)" stroke="#707070" stroke-width="3" opacity="0.1"/>
              <circle id="Ellipse_178-2" data-name="Ellipse 178" cx="6.238" cy="6.238" r="6.238" transform="translate(42.757 32.732)" stroke="#707070" stroke-width="3" opacity="0.1"/>
              <rect id="Rectangle_69-2" data-name="Rectangle 69" width="9.357" height="5.46" transform="translate(32.23 51.088)" fill="#63ff97"/>
              <rect id="Rectangle_70-2" data-name="Rectangle 70" width="38.989" height="31.191" transform="translate(17.415 54.988)" fill="#63ff97"/>
              <rect id="Rectangle_71-2" data-name="Rectangle 71" width="40.549" height="3.899" transform="translate(16.635 86.112)" fill="#63ff97"/>
              <g id="Group_26-2" data-name="Group 26" transform="translate(23.263 90.057)">
                <path id="Path_580-2" data-name="Path 580" d="M720.689,329.835v17.935h7.018V324.376h-7.018Z" transform="translate(-720.689 -324.376)" fill="#63ff97"/>
                <path id="Path_581-2" data-name="Path 581" d="M780.8,324.376v23.393h7.018V324.376Z" transform="translate(-759.744 -324.376)" fill="#63ff97"/>
                <rect id="Rectangle_72-2" data-name="Rectangle 72" width="7.018" height="5.458" transform="translate(0)" opacity="0.3"/>
                <rect id="Rectangle_73-2" data-name="Rectangle 73" width="7.018" height="7.018" transform="translate(0 10.137)" opacity="0.3"/>
                <rect id="Rectangle_74-2" data-name="Rectangle 74" width="7.018" height="2.339" transform="translate(0 21.054)" opacity="0.3"/>
                <rect id="Rectangle_75-2" data-name="Rectangle 75" width="7.018" height="5.458" transform="translate(21.054)" opacity="0.3"/>
                <rect id="Rectangle_76-2" data-name="Rectangle 76" width="7.018" height="7.018" transform="translate(21.054 10.137)" opacity="0.3"/>
                <rect id="Rectangle_77-2" data-name="Rectangle 77" width="7.018" height="2.339" transform="translate(21.054 21.054)" opacity="0.3"/>
              </g>
              <g id="Group_25-2" data-name="Group 25" transform="translate(0 62.006)">
                <path id="Path_582-2" data-name="Path 582" d="M694.293,280.656v7.212a10.548,10.548,0,0,0-5.184,2.5,12.264,12.264,0,0,0-3.087,4.525,22.98,22.98,0,0,0-1.52,6.908,39.5,39.5,0,0,0,.431,9.267h-7.8a53.223,53.223,0,0,1,.2-11.185,29.673,29.673,0,0,1,2.5-8.865,18,18,0,0,1,8.3-8.705A15.324,15.324,0,0,1,694.293,280.656Z" transform="translate(-676.935 -280.656)" fill="#63ff97"/>
                <path id="Path_583-2" data-name="Path 583" d="M715.076,280.656v7.212a10.548,10.548,0,0,0-5.184,2.5l-.97-8.054A15.322,15.322,0,0,1,715.076,280.656Z" transform="translate(-697.718 -280.656)" opacity="0.3"/>
                <path id="Path_584-2" data-name="Path 584" d="M686.775,314.115a22.992,22.992,0,0,0-1.52,6.908l-7.162-1.917a29.68,29.68,0,0,1,2.5-8.865Z" transform="translate(-677.687 -299.879)" opacity="0.3"/>
              </g>
              <g id="Group_24-2" data-name="Group 24" transform="translate(56.11 62.006)">
                <path id="Path_585-2" data-name="Path 585" d="M868.128,280.656v7.212a10.549,10.549,0,0,1,5.184,2.5,12.262,12.262,0,0,1,3.086,4.525,22.976,22.976,0,0,1,1.52,6.908,39.489,39.489,0,0,1-.431,9.267h7.8a53.232,53.232,0,0,0-.2-11.185,29.688,29.688,0,0,0-2.5-8.865,18,18,0,0,0-8.3-8.705A15.321,15.321,0,0,0,868.128,280.656Z" transform="translate(-868.128 -280.656)" fill="#63ff97"/>
                <path id="Path_586-2" data-name="Path 586" d="M868.128,280.656v7.212a10.549,10.549,0,0,1,5.184,2.5l.97-8.054A15.321,15.321,0,0,0,868.128,280.656Z" transform="translate(-868.128 -280.656)" opacity="0.3"/>
                <path id="Path_587-2" data-name="Path 587" d="M891.74,314.115a22.987,22.987,0,0,1,1.52,6.908l7.162-1.917a29.694,29.694,0,0,0-2.5-8.865Z" transform="translate(-883.469 -299.879)" opacity="0.3"/>
              </g>
              <rect id="Rectangle_78-2" data-name="Rectangle 78" width="9.357" height="0.646" transform="translate(32.23 51.088)" opacity="0.1"/>
              <path id="Path_588-2" data-name="Path 588" d="M853.6,276.485v13.059a2.721,2.721,0,0,1-.725-1.851v-9.359A2.718,2.718,0,0,1,853.6,276.485Z" transform="translate(-796.503 -215.94)" opacity="0.1"/>
              <path id="Path_589-2" data-name="Path 589" d="M740.7,275.875v9.776a2.717,2.717,0,0,1-.727,1.654V274.221A2.717,2.717,0,0,1,740.7,275.875Z" transform="translate(-723.148 -214.469)" opacity="0.1"/>
              <rect id="Rectangle_79-2" data-name="Rectangle 79" width="35.09" height="0.462" transform="translate(19.365 86.179)" opacity="0.1"/>
              <rect id="Rectangle_82-2" data-name="Rectangle 82" width="2.685" height="23.092" transform="translate(20.498 3.043)" fill="#63ff97"/>
              <rect id="Rectangle_83-2" data-name="Rectangle 83" width="2.685" height="23.092" transform="translate(51.287 3.043)" fill="#63ff97"/>
              <circle id="Ellipse_179-2" data-name="Ellipse 179" cx="3.043" cy="3.043" r="3.043" transform="translate(18.708 0.179)" opacity="0.1"/>
              <circle id="Ellipse_180-2" data-name="Ellipse 180" cx="3.043" cy="3.043" r="3.043" transform="translate(18.708 0)" fill="#63ff97"/>
              <circle id="Ellipse_181-2" data-name="Ellipse 181" cx="3.043" cy="3.043" r="3.043" transform="translate(49.676 0.179)" opacity="0.1"/>
              <circle id="Ellipse_182-2" data-name="Ellipse 182" cx="3.043" cy="3.043" r="3.043" transform="translate(49.676 0)" fill="#63ff97"/>
              <g id="Ellipse_220" data-name="Ellipse 220" transform="translate(19.937 33.993)" stroke="#000" stroke-width="0.5">
                <circle cx="5" cy="5" r="5" stroke="none"/>
                <circle cx="5" cy="5" r="4.75" fill="none"/>
              </g>
              <g id="Ellipse_221" data-name="Ellipse 221" transform="translate(43.937 33.993)" stroke="#000" stroke-width="0.5">
                <circle cx="5" cy="5" r="5" stroke="none"/>
                <circle cx="5" cy="5" r="4.75" fill="none"/>
              </g>
            </g>
          </g>
        </g>
        <g id="Group_29" data-name="Group 29" transform="translate(28.268 18.374)">
          <g id="Ellipse_189" data-name="Ellipse 189" transform="translate(-0.029 22.653)" fill="rgba(255,255,255,0)" stroke="#fff" stroke-width="1.5">
            <circle cx="4" cy="4" r="4" stroke="none"/>
            <circle cx="4" cy="4" r="3.25" fill="none"/>
          </g>
          <g id="Ellipse_190" data-name="Ellipse 190" transform="translate(50.971 -0.347)" fill="rgba(255,255,255,0)" stroke="#fff" stroke-width="1.5">
            <ellipse cx="2" cy="2.5" rx="2" ry="2.5" stroke="none"/>
            <ellipse cx="2" cy="2.5" rx="1.25" ry="1.75" fill="none"/>
          </g>
          <g id="Ellipse_191" data-name="Ellipse 191" transform="translate(108.971 22.653)" fill="rgba(255,255,255,0)" stroke="#fff" stroke-width="1.5">
            <ellipse cx="0.5" cy="1.5" rx="0.5" ry="1.5" stroke="none"/>
            <ellipse cx="0.5" cy="1.5" rx="0.25" ry="0.75" fill="none"/>
          </g>
          <g id="Ellipse_192" data-name="Ellipse 192" transform="translate(114.971 36.653)" fill="rgba(255,255,255,0)" stroke="#fff" stroke-width="1.5">
            <circle cx="1" cy="1" r="1" stroke="none"/>
            <circle cx="1" cy="1" r="0.25" fill="none"/>
          </g>
        </g>
        <g id="Group_30" data-name="Group 30" transform="translate(32.508 120.139)">
          <g id="Ellipse_189-2" data-name="Ellipse 189" transform="translate(-0.27 9.888)" fill="rgba(255,255,255,0)" stroke="#fff" stroke-width="1.5">
            <circle cx="5" cy="5" r="5" stroke="none"/>
            <circle cx="5" cy="5" r="4.25" fill="none"/>
          </g>
          <g id="Ellipse_190-2" data-name="Ellipse 190" transform="translate(50.73 36.888)" fill="rgba(255,255,255,0)" stroke="#fff" stroke-width="1.5">
            <ellipse cx="3" cy="2" rx="3" ry="2" stroke="none"/>
            <ellipse cx="3" cy="2" rx="2.25" ry="1.25" fill="none"/>
          </g>
          <g id="Ellipse_191-2" data-name="Ellipse 191" transform="translate(110.73 15.888)" fill="rgba(255,255,255,0)" stroke="#fff" stroke-width="1.5">
            <circle cx="0.5" cy="0.5" r="0.5" stroke="none"/>
            <circle cx="0.5" cy="0.5" r="0.25" fill="none"/>
          </g>
          <g id="Ellipse_192-2" data-name="Ellipse 192" transform="translate(112.73 -0.112)" fill="rgba(255,255,255,0)" stroke="#fff" stroke-width="1.5">
            <ellipse cx="2.5" cy="2" rx="2.5" ry="2" stroke="none"/>
            <ellipse cx="2.5" cy="2" rx="1.75" ry="1.25" fill="none"/>
          </g>
        </g>
        <g id="Group_31" data-name="Group 31" transform="translate(32.508 120.139)">
          <g id="Ellipse_189-3" data-name="Ellipse 189" transform="translate(-0.27 9.888)" fill="rgba(255,255,255,0)" stroke="#fff" stroke-width="1.5" opacity="0.1">
            <circle cx="5" cy="5" r="5" stroke="none"/>
            <circle cx="5" cy="5" r="4.25" fill="none"/>
          </g>
          <g id="Ellipse_190-3" data-name="Ellipse 190" transform="translate(50.73 36.888)" fill="rgba(255,255,255,0)" stroke="#fff" stroke-width="1.5">
            <ellipse cx="3" cy="2" rx="3" ry="2" stroke="none"/>
            <ellipse cx="3" cy="2" rx="2.25" ry="1.25" fill="none"/>
          </g>
          <g id="Ellipse_191-3" data-name="Ellipse 191" transform="translate(110.73 15.888)" fill="rgba(255,255,255,0)" stroke="#fff" stroke-width="1.5">
            <circle cx="0.5" cy="0.5" r="0.5" stroke="none"/>
            <circle cx="0.5" cy="0.5" r="0.25" fill="none"/>
          </g>
          <g id="Ellipse_192-3" data-name="Ellipse 192" transform="translate(112.73 -0.112)" fill="rgba(255,255,255,0)" stroke="#fff" stroke-width="1.5">
            <ellipse cx="2.5" cy="2" rx="2.5" ry="2" stroke="none"/>
            <ellipse cx="2.5" cy="2" rx="1.75" ry="1.25" fill="none"/>
          </g>
        </g>
        <g id="Group_32" data-name="Group 32" transform="translate(43.229 40.989) rotate(90)">
          <g id="Ellipse_189-4" data-name="Ellipse 189" transform="translate(0.039 6.99)" fill="rgba(255,255,255,0)" stroke="#fff" stroke-width="1.5">
            <circle cx="4" cy="4" r="4" stroke="none"/>
            <circle cx="4" cy="4" r="3.25" fill="none"/>
          </g>
          <g id="Ellipse_190-4" data-name="Ellipse 190" transform="translate(51.039 33.99)" fill="rgba(255,255,255,0)" stroke="#fff" stroke-width="1.5">
            <circle cx="3" cy="3" r="3" stroke="none"/>
            <circle cx="3" cy="3" r="2.25" fill="none"/>
          </g>
          <g id="Ellipse_193" data-name="Ellipse 193" transform="translate(42.039 12.99)" fill="rgba(255,255,255,0)" stroke="#fff" stroke-width="1.5">
            <circle cx="1.5" cy="1.5" r="1.5" stroke="none"/>
            <circle cx="1.5" cy="1.5" r="0.75" fill="none"/>
          </g>
          <g id="Ellipse_192-4" data-name="Ellipse 192" transform="translate(112.039 -0.01)" fill="rgba(255,255,255,0)" stroke="#fff" stroke-width="1.5">
            <ellipse cx="2.5" cy="1.5" rx="2.5" ry="1.5" stroke="none"/>
            <ellipse cx="2.5" cy="1.5" rx="1.75" ry="0.75" fill="none"/>
          </g>
        </g>
        <g id="Group_33" data-name="Group 33" transform="translate(182.329 79.15) rotate(90)">
          <g id="Ellipse_190-5" data-name="Ellipse 190" transform="translate(6.877 0.09)" fill="rgba(255,255,255,0)" stroke="#fff" stroke-width="1.5">
            <circle cx="3" cy="3" r="3" stroke="none"/>
            <circle cx="3" cy="3" r="2.25" fill="none"/>
          </g>
          <g id="Ellipse_193-2" data-name="Ellipse 193" transform="translate(-0.123 23.09)" fill="rgba(255,255,255,0)" stroke="#fff" stroke-width="1.5">
            <ellipse cx="3" cy="2" rx="3" ry="2" stroke="none"/>
            <ellipse cx="3" cy="2" rx="2.25" ry="1.25" fill="none"/>
          </g>
          <g id="Ellipse_192-5" data-name="Ellipse 192" transform="translate(71.877 37.09)" fill="rgba(255,255,255,0)" stroke="#fff" stroke-width="1.5">
            <ellipse cx="3" cy="1" rx="3" ry="1" stroke="none"/>
            <ellipse cx="3" cy="1" rx="2.25" ry="0.25" fill="none"/>
          </g>
        </g>
      </g>
      <text id="ML_AI-2" data-name="ML/AI" transform="translate(62.507 204.027)" font-size="33" font-family="Montserrat-SemiBold, Montserrat" font-weight="600"><tspan x="0" y="0">ML/AI</tspan></text>
      <text id="Computer_Vision_Artificial_intelligence_reinforcement_learning" data-name="Computer Vision, Artificial intelligence, reinforcement learning" transform="translate(-0.493 213.027)" font-size="15" font-family="Montserrat-Regular, Montserrat"><tspan x="20.042" y="15">Computer Vision, Artificial </tspan><tspan x="13.72" y="37">Intelligence, Reinforcement </tspan><tspan x="84.52" y="59">Learning</tspan></text>
    </g>
  </g>
</svg>
