<svg xmlns="http://www.w3.org/2000/svg" width="36.049" height="52.194" viewBox="0 0 36.049 52.194">
  <g id="Skills" transform="translate(-1637 -8554)">
    <g id="paths" transform="translate(1637 8554)">
      <g id="Path_696" data-name="Path 696" transform="translate(0)" fill="none">
        <path d="M18.025,0A18.025,18.025,0,0,1,30.947,30.59a37.417,37.417,0,0,0-5.513,9.358C23.165,45.481,32,52.265,18.054,52.194s-5.15-6.077-7.361-11.53a41.587,41.587,0,0,0-5.975-10.48A18.025,18.025,0,0,1,18.025,0Z" stroke="none"/>
        <path d="M 18.02451133728027 2 C 13.74421119689941 2 9.720100402832031 3.666839599609375 6.693471908569336 6.693470001220703 C 3.666839599609375 9.720096588134766 2 13.74420928955078 2 18.02450942993164 C 2 22.03943824768066 3.489532470703125 25.87811851501465 6.194221496582031 28.83342933654785 C 7.814182281494141 30.60351753234863 10.5912914276123 35.08806610107422 12.54722213745117 39.91262817382813 C 13.55002212524414 42.38619995117188 12.90823173522949 44.76338958740234 12.39254188537598 46.67348861694336 C 12.15660095214844 47.54740905761719 11.80004119873047 48.86808013916016 12.02781105041504 49.16707992553711 C 12.06855201721191 49.2205696105957 12.322021484375 49.50029754638672 13.31313133239746 49.75473785400391 C 14.40657043457031 50.03544998168945 16.00521087646484 50.18314743041992 18.06478118896484 50.19372940063477 C 18.13446044921875 50.19408798217773 18.20312118530273 50.19425964355469 18.2716121673584 50.19425964355469 C 20.18384170532227 50.19425964355469 21.6808910369873 50.05356979370117 22.72117233276367 49.77608871459961 C 23.63168144226074 49.53322982788086 23.92393112182617 49.25853729248047 24.00732040405273 49.15170669555664 C 24.33349990844727 48.73382949829102 23.99287033081055 47.37282943725586 23.69235229492188 46.17203903198242 C 23.19043159484863 44.16654968261719 22.56577110290527 41.67064666748047 23.58355140686035 39.18862915039063 C 25.50729179382324 34.49726104736328 28.44009017944336 30.30206871032715 29.51165199279785 29.19728851318359 C 32.4376220703125 26.18062782287598 34.04902267456055 22.21271896362305 34.04902267456055 18.02450942993164 C 34.04902267456055 13.74420928955078 32.38218307495117 9.720096588134766 29.35555076599121 6.693470001220703 C 26.32892227172852 3.666839599609375 22.30481147766113 2 18.02451133728027 2 M 18.02451133728027 0 C 27.97917175292969 0 36.04902267456055 8.069847106933594 36.04902267456055 18.02450942993164 C 36.04902267456055 22.90226936340332 34.11147308349609 27.32748794555664 30.94728088378906 30.58975791931152 C 30.19675064086914 31.36355781555176 27.35698127746582 35.25794982910156 25.43401145935059 39.94742965698242 C 23.17676162719727 45.45214080810547 31.90332794189453 52.19425964355469 18.27160835266113 52.19425964355469 C 18.19967842102051 52.19425964355469 18.12757301330566 52.19407272338867 18.05439186096191 52.19369888305664 C 4.112602233886719 52.12208938598633 12.90431213378906 46.11676788330078 10.69374084472656 40.66403961181641 C 8.856540679931641 36.13233947753906 6.220861434936523 31.82492828369141 4.718820571899414 30.18368911743164 C 1.790241241455078 26.98373794555664 0 22.71318817138672 0 18.02450942993164 C 0 8.069847106933594 8.069850921630859 0 18.02451133728027 0 Z" stroke="none" fill="#fff"/>
      </g>
      <g id="Group_45" data-name="Group 45" transform="translate(6.127 36.618)">
        <g id="Rectangle_104" data-name="Rectangle 104" transform="translate(-0.102 0.206)" fill="rgba(255,255,255,0)" stroke="#fff" stroke-width="1">
          <rect width="24" height="3" rx="1.5" stroke="none"/>
          <rect x="0.5" y="0.5" width="23" height="2" rx="1" fill="none"/>
        </g>
        <g id="Rectangle_104-2" data-name="Rectangle 104" transform="translate(-0.102 2.206)" fill="rgba(255,255,255,0)" stroke="#fff" stroke-width="1">
          <rect width="24" height="4" rx="2" stroke="none"/>
          <rect x="0.5" y="0.5" width="23" height="3" rx="1.5" fill="none"/>
        </g>
        <g id="Rectangle_104-3" data-name="Rectangle 104" transform="translate(-0.102 5.206)" fill="rgba(255,255,255,0)" stroke="#fff" stroke-width="1">
          <rect width="24" height="4" rx="2" stroke="none"/>
          <rect x="0.5" y="0.5" width="23" height="3" rx="1.5" fill="none"/>
        </g>
      </g>
    </g>
    <g id="icons8-settings" transform="translate(1643.351 8559.971)">
      <path id="Path_698" data-name="Path 698" d="M24.51,17.529a8.707,8.707,0,0,0,.116-1.279,8.707,8.707,0,0,0-.116-1.279l2.616-1.86A.626.626,0,0,0,27.3,12.3L24.742,8a.525.525,0,0,0-.756-.233L21.08,9.1a10.422,10.422,0,0,0-2.209-1.279l-.291-3.2A.618.618,0,0,0,18,4.1H13a.574.574,0,0,0-.581.523l-.291,3.2A9.155,9.155,0,0,0,9.918,9.1L7.011,7.762A.612.612,0,0,0,6.256,8l-2.5,4.3a.626.626,0,0,0,.174.814l2.616,1.86A8.708,8.708,0,0,0,6.43,16.25a8.708,8.708,0,0,0,.116,1.279l-2.732,1.86a.626.626,0,0,0-.174.814l2.5,4.3a.525.525,0,0,0,.756.233L9.8,23.4a10.422,10.422,0,0,0,2.209,1.279l.291,3.2a.618.618,0,0,0,.581.523h5a.574.574,0,0,0,.581-.523l.291-3.2A9.155,9.155,0,0,0,20.964,23.4l2.907,1.337a.612.612,0,0,0,.756-.233l2.5-4.3a.626.626,0,0,0-.174-.814Zm-9.069,4.535a5.813,5.813,0,1,1,5.813-5.813A5.831,5.831,0,0,1,15.441,22.064Z" transform="translate(-3.556 -4.1)" fill="none" stroke="#fff" stroke-width="2"/>
      <path id="Path_699" data-name="Path 699" d="M17.931,13a5.931,5.931,0,1,0,5.931,5.931A5.948,5.948,0,0,0,17.931,13Z" transform="translate(-6.046 -6.781)" fill="none" stroke="#fff" stroke-width="2"/>
    </g>
  </g>
</svg>
